STARTFONT 2.1
FONT -AmsteinGraphics-DMCP-Normal-I-Normal--46-460-36-38-P-115-ISO10646-1
SIZE 7 173 173
FONTBOUNDINGBOX 18 27 -2 -5
STARTPROPERTIES 30
FAMILY_NAME "DMCP"
DEFAULT_CHAR -1
FOUNDRY "AmsteinGraphics"
COPYRIGHT "Copyright (c) 2022 SwissMicros"
CODEPAGE "MS Windows 1252 Western (ANSI)"
ENC_MODE 2
ENC_ID 1
CREATION_YEAR 2022
WEIGHT_NAME "Normal"
SLANT "I"
SETWIDTH_NAME "Normal"
SPACING "P"
WEIGHT 400
HI_VERSION 1
MAC_FONT_STYLE 2
CP_RANGE_1 65535
CP_RANGE_2 65535
FONTNAME_REGISTRY "-"
CHARSET_REGISTRY "ISO10646"
CHARSET_ENCODING "1"
BREAK_CHAR 32
PIXEL_SIZE 18
POINT_SIZE 70
FONT_ASCENT 18
FONT_DESCENT 5
RESOLUTION_X 173
RESOLUTION_Y 173
AVERAGE_WIDTH 115
X_HEIGHT 13
CAP_HEIGHT 18
ENDPROPERTIES
CHARS 289
STARTCHAR space.uni0020
ENCODING 32
SWIDTH 576 0
DWIDTH 14 0
BBX 0 0 0 0
BITMAP
ENDCHAR
STARTCHAR exclam.uni0021
ENCODING 33
SWIDTH 576 0
DWIDTH 14 0
BBX 5 18 4 0
BITMAP
1800
1800
1800
1800
3000
3000
3000
3000
3000
3000
2000
6000
0000
0000
0000
C000
C000
C000
ENDCHAR
STARTCHAR quotedbl.uni0022
ENCODING 34
SWIDTH 576 0
DWIDTH 14 0
BBX 6 7 4 11
BITMAP
CC00
CC00
CC00
CC00
CC00
CC00
CC00
ENDCHAR
STARTCHAR numbersign.uni0023
ENCODING 35
SWIDTH 576 0
DWIDTH 14 0
BBX 14 17 0 0
BITMAP
0318
0318
0318
0630
7FFC
7FFC
0C60
0C60
18C0
18C0
FFF8
FFF8
18C0
3180
3180
3180
6300
ENDCHAR
STARTCHAR dollar.uni0024
ENCODING 36
SWIDTH 576 0
DWIDTH 14 0
BBX 12 22 0 -4
BITMAP
0080
0180
0100
07E0
1FF0
1930
3100
3300
3200
3E00
1F80
03C0
0660
0460
0460
C4C0
FFC0
7F00
0800
0800
0800
0800
ENDCHAR
STARTCHAR percent.uni0025
ENCODING 37
SWIDTH 576 0
DWIDTH 14 0
BBX 13 18 0 0
BITMAP
3800
7C00
C600
C600
C600
7C00
3818
0060
0180
0600
1800
60E0
01F0
0318
0318
0318
01F0
00E0
ENDCHAR
STARTCHAR ampersand.uni0026
ENCODING 38
SWIDTH 576 0
DWIDTH 14 0
BBX 14 18 0 0
BITMAP
01E0
07F0
0E10
0C00
0C00
0C00
0E00
0E00
1F00
330C
638C
C188
C0D8
C0F0
C070
F0E0
7FB0
1F30
ENDCHAR
STARTCHAR quotesingle.uni0027
ENCODING 39
SWIDTH 576 0
DWIDTH 14 0
BBX 2 7 6 11
BITMAP
C000
C000
C000
C000
C000
C000
C000
ENDCHAR
STARTCHAR parenleft.uni0028
ENCODING 40
SWIDTH 576 0
DWIDTH 14 0
BBX 7 21 4 -3
BITMAP
0600
0C00
1800
1800
3000
3000
6000
6000
6000
E000
C000
C000
C000
C000
C000
C000
C000
C000
6000
6000
6000
ENDCHAR
STARTCHAR parenright.uni0029
ENCODING 41
SWIDTH 576 0
DWIDTH 14 0
BBX 7 21 2 -3
BITMAP
0C00
0C00
0C00
0400
0600
0600
0600
0600
0600
0600
0600
0E00
0C00
0C00
0C00
1800
1800
3000
3000
6000
C000
ENDCHAR
STARTCHAR asterisk.uni002A
ENCODING 42
SWIDTH 576 0
DWIDTH 14 0
BBX 9 10 2 8
BITMAP
0800
0800
8880
6B00
1C00
1C00
6B00
8880
0800
0800
ENDCHAR
STARTCHAR plus.uni002B
ENCODING 43
SWIDTH 576 0
DWIDTH 14 0
BBX 12 12 1 2
BITMAP
0600
0600
0600
0600
0600
FFF0
FFF0
0600
0600
0600
0600
0600
ENDCHAR
STARTCHAR comma.uni002C
ENCODING 44
SWIDTH 576 0
DWIDTH 14 0
BBX 5 7 3 -3
BITMAP
3800
3800
3800
3000
7000
6000
C000
ENDCHAR
STARTCHAR hyphen.uni002D
ENCODING 45
SWIDTH 576 0
DWIDTH 14 0
BBX 6 2 3 6
BITMAP
FC00
FC00
ENDCHAR
STARTCHAR period.uni002E
ENCODING 46
SWIDTH 576 0
DWIDTH 14 0
BBX 3 4 4 0
BITMAP
E000
E000
E000
E000
ENDCHAR
STARTCHAR slash.uni002F
ENCODING 47
SWIDTH 576 0
DWIDTH 14 0
BBX 12 20 0 -2
BITMAP
0030
0060
0060
00C0
00C0
0180
0180
0300
0300
0600
0600
0C00
0C00
1800
1800
3000
3000
6000
6000
C000
ENDCHAR
STARTCHAR zero.uni0030
ENCODING 48
SWIDTH 576 0
DWIDTH 14 0
BBX 12 18 1 0
BITMAP
07C0
0FE0
1C60
3830
3070
60F0
61F0
63B0
E730
CE70
DC60
F860
F060
E0C0
C1C0
E380
7F00
3E00
ENDCHAR
STARTCHAR one.uni0031
ENCODING 49
SWIDTH 576 0
DWIDTH 14 0
BBX 9 18 1 0
BITMAP
0700
1F00
1300
0300
0300
0700
0600
0600
0600
0600
0600
0600
0E00
0C00
0C00
0C00
FF80
FF00
ENDCHAR
STARTCHAR two.uni0032
ENCODING 50
SWIDTH 576 0
DWIDTH 14 0
BBX 13 18 0 0
BITMAP
07E0
1FF0
1838
0018
0018
0018
0038
0070
00E0
00E0
0380
0700
0E00
1C00
3800
7000
FFE0
FFE0
ENDCHAR
STARTCHAR three.uni0033
ENCODING 51
SWIDTH 576 0
DWIDTH 14 0
BBX 13 18 0 0
BITMAP
07E0
0FF0
1838
0018
0018
0018
0038
0070
07E0
07E0
0070
0030
0030
0030
0070
C0E0
FFC0
7F00
ENDCHAR
STARTCHAR four.uni0034
ENCODING 52
SWIDTH 576 0
DWIDTH 14 0
BBX 12 18 0 0
BITMAP
0070
00F0
01B0
0160
0360
0660
0C60
0C60
1860
30C0
70C0
60C0
FFF0
FFF0
00C0
0180
0180
0180
ENDCHAR
STARTCHAR five.uni0035
ENCODING 53
SWIDTH 576 0
DWIDTH 14 0
BBX 13 18 0 0
BITMAP
0FF8
0FF8
0C00
0C00
1800
1800
1F80
1FE0
10E0
0030
0030
0030
0030
0060
0060
C1C0
FF80
7E00
ENDCHAR
STARTCHAR six.uni0036
ENCODING 54
SWIDTH 576 0
DWIDTH 14 0
BBX 12 18 1 0
BITMAP
03E0
0FF0
1C20
3800
3000
6000
6F80
7FC0
F0E0
E060
E060
C060
C060
C0C0
C0C0
E1C0
7F80
3E00
ENDCHAR
STARTCHAR seven.uni0037
ENCODING 55
SWIDTH 576 0
DWIDTH 14 0
BBX 12 18 2 0
BITMAP
7FF0
7FF0
0060
00C0
00C0
0180
0380
0300
0700
0600
0E00
0C00
1800
1800
3000
7000
6000
E000
ENDCHAR
STARTCHAR eight.uni0038
ENCODING 56
SWIDTH 576 0
DWIDTH 14 0
BBX 12 18 0 0
BITMAP
07C0
0FE0
1C70
3830
3030
3030
3060
18E0
1FC0
1F80
70C0
6060
C060
C060
C0E0
E1C0
7F80
3F00
ENDCHAR
STARTCHAR nine.uni0039
ENCODING 57
SWIDTH 576 0
DWIDTH 14 0
BBX 11 18 1 0
BITMAP
0F80
3FC0
70C0
6060
E060
C060
C060
C0E0
C0E0
E1E0
7FC0
3EC0
00C0
0180
0180
8700
FE00
F800
ENDCHAR
STARTCHAR colon.uni003A
ENCODING 58
SWIDTH 576 0
DWIDTH 14 0
BBX 5 12 4 0
BITMAP
3800
3800
3800
3800
0000
0000
0000
0000
E000
E000
E000
E000
ENDCHAR
STARTCHAR semicolon.uni003B
ENCODING 59
SWIDTH 576 0
DWIDTH 14 0
BBX 7 15 3 -3
BITMAP
0E00
0E00
0E00
0E00
0000
0000
0000
0000
3800
3800
3800
3000
7000
6000
C000
ENDCHAR
STARTCHAR less.uni003C
ENCODING 60
SWIDTH 576 0
DWIDTH 14 0
BBX 12 12 1 1
BITMAP
0010
00F0
03E0
0F80
7C00
F000
F000
7C00
0F80
03E0
00F0
0010
ENDCHAR
STARTCHAR equal.uni003D
ENCODING 61
SWIDTH 576 0
DWIDTH 14 0
BBX 12 7 1 4
BITMAP
FFF0
FFF0
0000
0000
0000
FFF0
FFF0
ENDCHAR
STARTCHAR greater.uni003E
ENCODING 62
SWIDTH 576 0
DWIDTH 14 0
BBX 12 12 1 1
BITMAP
8000
F000
7C00
1F00
03E0
00F0
00F0
03E0
1F00
7C00
F000
8000
ENDCHAR
STARTCHAR question.uni003F
ENCODING 63
SWIDTH 576 0
DWIDTH 14 0
BBX 9 18 4 0
BITMAP
3E00
7F00
C380
8180
0180
0300
0700
0E00
1800
3000
6000
6000
6000
0000
0000
C000
C000
C000
ENDCHAR
STARTCHAR at.uni0040
ENCODING 64
SWIDTH 576 0
DWIDTH 14 0
BBX 14 20 0 -4
BITMAP
01F0
07F8
0E1C
180C
300C
70EC
61FC
631C
C718
C618
C618
C618
C730
C3F0
C3D0
6000
7000
3840
1FC0
0FC0
ENDCHAR
STARTCHAR A.uni0041
ENCODING 65
SWIDTH 576 0
DWIDTH 14 0
BBX 13 18 -1 0
BITMAP
00E0
00E0
01E0
01A0
0330
0330
0630
0630
0E30
0C30
1C30
1830
1FF0
3FF8
3018
6018
6018
C018
ENDCHAR
STARTCHAR B.uni0042
ENCODING 66
SWIDTH 576 0
DWIDTH 14 0
BBX 13 18 0 0
BITMAP
1FE0
1FF0
1838
3018
3018
3018
3038
3070
3FE0
7FE0
6070
6030
6030
6030
6070
C0E0
FFC0
FF00
ENDCHAR
STARTCHAR C.uni0043
ENCODING 67
SWIDTH 576 0
DWIDTH 14 0
BBX 12 18 1 0
BITMAP
03E0
0FF0
1C10
3800
3000
7000
6000
6000
C000
C000
C000
C000
C000
C000
E000
7080
7F80
1F00
ENDCHAR
STARTCHAR D.uni0044
ENCODING 68
SWIDTH 576 0
DWIDTH 14 0
BBX 13 18 0 0
BITMAP
1FC0
1FE0
1870
3038
3018
3018
3018
3018
3018
6018
6030
6030
6030
6060
60E0
C1C0
FF80
FE00
ENDCHAR
STARTCHAR E.uni0045
ENCODING 69
SWIDTH 576 0
DWIDTH 14 0
BBX 13 18 1 0
BITMAP
1FF8
1FF8
1800
3000
3000
3000
3000
3000
3FE0
7FE0
6000
6000
6000
6000
6000
C000
FFC0
FFC0
ENDCHAR
STARTCHAR F.uni0046
ENCODING 70
SWIDTH 576 0
DWIDTH 14 0
BBX 13 18 1 0
BITMAP
1FF8
1FF8
1800
3000
3000
3000
3000
3000
3FE0
7FE0
6000
6000
6000
6000
6000
C000
C000
C000
ENDCHAR
STARTCHAR G.uni0047
ENCODING 71
SWIDTH 576 0
DWIDTH 14 0
BBX 12 18 1 0
BITMAP
03E0
0FF0
1C10
3800
3000
6000
6000
6000
C000
C3E0
C3E0
C0E0
C0C0
C0C0
E0C0
71C0
7FC0
1F00
ENDCHAR
STARTCHAR H.uni0048
ENCODING 72
SWIDTH 576 0
DWIDTH 14 0
BBX 14 18 0 0
BITMAP
180C
180C
180C
3018
3018
3018
3018
3018
3FF8
7FF0
6030
6030
6030
6030
6030
C060
C060
C060
ENDCHAR
STARTCHAR I.uni0049
ENCODING 73
SWIDTH 576 0
DWIDTH 14 0
BBX 13 18 1 0
BITMAP
1FF8
1FF8
0180
0300
0300
0300
0300
0300
0600
0600
0600
0600
0600
0E00
0C00
0C00
FFC0
FFC0
ENDCHAR
STARTCHAR J.uni004A
ENCODING 74
SWIDTH 576 0
DWIDTH 14 0
BBX 13 18 0 0
BITMAP
03F8
03F8
0038
0030
0030
0030
0030
0070
0060
0060
0060
0060
00E0
00C0
80C0
E1C0
FF80
7E00
ENDCHAR
STARTCHAR K.uni004B
ENCODING 75
SWIDTH 576 0
DWIDTH 14 0
BBX 14 18 0 0
BITMAP
180C
1818
1870
30E0
31C0
3380
3700
3E00
3F00
7B00
7380
6180
6180
60C0
60C0
C060
C060
C070
ENDCHAR
STARTCHAR L.uni004C
ENCODING 76
SWIDTH 576 0
DWIDTH 14 0
BBX 11 18 1 0
BITMAP
1800
1800
1800
3000
3000
3000
3000
3000
3000
6000
6000
6000
6000
6000
6000
C000
FFE0
FFE0
ENDCHAR
STARTCHAR M.uni004D
ENCODING 77
SWIDTH 576 0
DWIDTH 14 0
BBX 15 18 -1 0
BITMAP
1C0E
1C1E
1C1E
3E3C
363C
366C
364C
32CC
328C
7398
6318
6318
6018
6018
6018
C030
C030
C030
ENDCHAR
STARTCHAR N.uni004E
ENCODING 78
SWIDTH 576 0
DWIDTH 14 0
BBX 14 18 0 0
BITMAP
1C0C
1C0C
1E0C
3618
3618
3618
3618
3318
3318
6330
6330
61B0
61B0
61B0
61B0
C1E0
C0E0
C0E0
ENDCHAR
STARTCHAR O.uni004F
ENCODING 79
SWIDTH 576 0
DWIDTH 14 0
BBX 12 18 1 0
BITMAP
07C0
0FE0
1C60
3830
3030
6030
6030
6030
E030
C070
C060
C060
C060
C0C0
C1C0
E380
7F00
3E00
ENDCHAR
STARTCHAR P.uni0050
ENCODING 80
SWIDTH 576 0
DWIDTH 14 0
BBX 13 18 1 0
BITMAP
1FE0
1FF0
1838
3018
3018
3018
3038
3070
3FE0
7F80
6000
6000
6000
6000
6000
C000
C000
C000
ENDCHAR
STARTCHAR Q.uni0051
ENCODING 81
SWIDTH 576 0
DWIDTH 14 0
BBX 12 21 1 -3
BITMAP
07C0
0FE0
1C60
3830
3030
6030
6030
6030
E030
C070
C060
C060
C060
C0C0
C1C0
E380
7F00
3E00
0700
0380
0100
ENDCHAR
STARTCHAR R.uni0052
ENCODING 82
SWIDTH 576 0
DWIDTH 14 0
BBX 13 18 0 0
BITMAP
1FE0
1FF0
1838
3018
3018
3018
3030
3070
3FE0
7FC0
60C0
6060
6060
6060
6030
C030
C030
C030
ENDCHAR
STARTCHAR S.uni0053
ENCODING 83
SWIDTH 576 0
DWIDTH 14 0
BBX 12 18 1 0
BITMAP
07E0
1FF0
3830
7000
6000
6000
6000
7800
3E00
0FC0
01C0
0060
0060
0060
00E0
81C0
FF80
7E00
ENDCHAR
STARTCHAR T.uni0054
ENCODING 84
SWIDTH 576 0
DWIDTH 14 0
BBX 13 18 2 0
BITMAP
FFF8
FFF8
0600
0600
0600
0C00
0C00
0C00
0C00
0C00
1800
1800
1800
1800
1800
3800
3000
3000
ENDCHAR
STARTCHAR U.uni0055
ENCODING 85
SWIDTH 576 0
DWIDTH 14 0
BBX 13 18 1 0
BITMAP
3018
3030
3030
3030
6030
6030
6070
6060
6060
6060
C060
C060
C0C0
C0C0
C0C0
E180
7F00
3E00
ENDCHAR
STARTCHAR V.uni0056
ENCODING 86
SWIDTH 576 0
DWIDTH 14 0
BBX 13 18 2 0
BITMAP
C018
C030
C030
C060
C060
60C0
60C0
61C0
6180
6380
6300
6700
6600
6600
6C00
6C00
3800
3800
ENDCHAR
STARTCHAR W.uni0057
ENCODING 87
SWIDTH 576 0
DWIDTH 14 0
BBX 15 18 1 0
BITMAP
6006
600E
600C
600C
601C
E718
C718
C738
CF30
CF30
CF70
DB60
DB60
FBE0
F3C0
F3C0
E3C0
E380
ENDCHAR
STARTCHAR X.uni0058
ENCODING 88
SWIDTH 576 0
DWIDTH 14 0
BBX 16 18 -1 0
BITMAP
0C07
0C0E
060C
0618
0738
0370
03E0
01C0
0180
03C0
07C0
06C0
0C60
1C60
1870
3030
7030
E018
ENDCHAR
STARTCHAR Y.uni0059
ENCODING 89
SWIDTH 576 0
DWIDTH 14 0
BBX 13 18 2 0
BITMAP
C038
E070
6060
60C0
61C0
3380
3300
3600
1E00
1C00
1800
1800
1800
1800
3000
3000
3000
3000
ENDCHAR
STARTCHAR Z.uni005A
ENCODING 90
SWIDTH 576 0
DWIDTH 14 0
BBX 14 18 0 0
BITMAP
1FFC
1FFC
0018
0030
0070
00E0
00C0
0180
0380
0700
0600
0C00
1C00
3800
3000
6000
FFE0
FFE0
ENDCHAR
STARTCHAR bracketleft.uni005B
ENCODING 91
SWIDTH 576 0
DWIDTH 14 0
BBX 9 21 3 -3
BITMAP
0F80
0F80
0C00
1800
1800
1800
1800
1800
3000
3000
3000
3000
3000
6000
6000
6000
6000
6000
E000
F800
F800
ENDCHAR
STARTCHAR backslash.uni005C
ENCODING 92
SWIDTH 576 0
DWIDTH 14 0
BBX 4 20 4 -2
BITMAP
C000
C000
C000
C000
C000
6000
6000
6000
6000
6000
6000
6000
6000
6000
6000
3000
3000
3000
3000
3000
ENDCHAR
STARTCHAR bracketright.uni005D
ENCODING 93
SWIDTH 576 0
DWIDTH 14 0
BBX 9 21 2 -3
BITMAP
0F80
0F80
0380
0300
0300
0300
0300
0300
0600
0600
0600
0600
0600
0C00
0C00
0C00
0C00
0C00
1800
F800
F800
ENDCHAR
STARTCHAR asciicircum.uni005E
ENCODING 94
SWIDTH 576 0
DWIDTH 14 0
BBX 12 7 1 11
BITMAP
0600
0F00
1F80
1980
30C0
6060
C030
ENDCHAR
STARTCHAR underscore.uni005F
ENCODING 95
SWIDTH 576 0
DWIDTH 14 0
BBX 12 2 0 -5
BITMAP
FFF0
FFF0
ENDCHAR
STARTCHAR grave.uni0060
ENCODING 96
SWIDTH 576 0
DWIDTH 14 0
BBX 4 4 5 15
BITMAP
C000
6000
2000
3000
ENDCHAR
STARTCHAR a.uni0061
ENCODING 97
SWIDTH 576 0
DWIDTH 14 0
BBX 11 13 1 0
BITMAP
0F80
3FC0
20E0
0060
0060
1FE0
7FE0
60C0
C0C0
C1C0
E3C0
FEC0
7D80
ENDCHAR
STARTCHAR b.uni0062
ENCODING 98
SWIDTH 576 0
DWIDTH 14 0
BBX 12 18 1 0
BITMAP
1800
1800
1800
3000
3000
33C0
3FE0
3C70
3030
7030
6030
6030
6070
6060
60E0
F1C0
DF80
CF00
ENDCHAR
STARTCHAR c.uni0063
ENCODING 99
SWIDTH 576 0
DWIDTH 14 0
BBX 11 13 2 0
BITMAP
07C0
1FE0
3820
7000
6000
C000
C000
C000
C000
C000
E080
7F80
3F00
ENDCHAR
STARTCHAR d.uni0064
ENCODING 100
SWIDTH 576 0
DWIDTH 14 0
BBX 13 18 1 0
BITMAP
0018
0018
0018
0030
0030
0F30
1FB0
38F0
7070
6060
C060
C060
C060
C0E0
C0E0
E1C0
7FC0
3CC0
ENDCHAR
STARTCHAR e.uni0065
ENCODING 101
SWIDTH 576 0
DWIDTH 14 0
BBX 12 13 1 0
BITMAP
07C0
1FE0
3870
7030
6030
FFF0
FFF0
C000
C000
C000
E040
7FC0
1F80
ENDCHAR
STARTCHAR f.uni0066
ENCODING 102
SWIDTH 576 0
DWIDTH 14 0
BBX 11 18 3 0
BITMAP
03E0
0FE0
0C00
1C00
1800
FFC0
FFC0
1800
3800
3000
3000
3000
3000
3000
3000
6000
6000
6000
ENDCHAR
STARTCHAR g.uni0067
ENCODING 103
SWIDTH 576 0
DWIDTH 14 0
BBX 12 18 1 -5
BITMAP
0F30
1FB0
38F0
6060
6060
C060
C060
C0E0
C0C0
C1C0
E3C0
7EC0
3DC0
0180
0180
8300
FF00
7C00
ENDCHAR
STARTCHAR h.uni0068
ENCODING 104
SWIDTH 576 0
DWIDTH 14 0
BBX 11 18 1 0
BITMAP
1800
1800
1800
3000
3000
33C0
37E0
38E0
3060
7060
6060
60C0
60C0
60C0
60C0
C1C0
C180
C180
ENDCHAR
STARTCHAR i.uni0069
ENCODING 105
SWIDTH 576 0
DWIDTH 14 0
BBX 10 18 1 0
BITMAP
0180
0180
0180
0000
0000
1F00
1F00
0300
0600
0600
0600
0600
0600
0C00
0C00
0C00
FFC0
FFC0
ENDCHAR
STARTCHAR j.uni006A
ENCODING 106
SWIDTH 576 0
DWIDTH 14 0
BBX 11 23 0 -5
BITMAP
0060
0060
0060
0000
0000
0FC0
0FC0
01C0
0180
0180
0180
0180
0180
0300
0300
0300
0300
0300
0600
0600
0E00
FC00
F800
ENDCHAR
STARTCHAR k.uni006B
ENCODING 107
SWIDTH 576 0
DWIDTH 14 0
BBX 12 18 1 0
BITMAP
1800
1800
1800
3000
3000
3070
30E0
31C0
3700
6E00
7E00
7E00
6300
6380
6180
C1C0
C0C0
C060
ENDCHAR
STARTCHAR l.uni006C
ENCODING 108
SWIDTH 576 0
DWIDTH 14 0
BBX 8 18 3 0
BITMAP
FC00
FC00
0C00
0C00
1800
1800
1800
1800
3000
3000
3000
3000
6000
6000
6000
7000
7F00
3F00
ENDCHAR
STARTCHAR m.uni006D
ENCODING 109
SWIDTH 576 0
DWIDTH 14 0
BBX 14 13 0 0
BITMAP
3738
3FFC
31CC
718C
618C
618C
6318
6318
6318
E318
C738
C630
C630
ENDCHAR
STARTCHAR n.uni006E
ENCODING 110
SWIDTH 576 0
DWIDTH 14 0
BBX 11 13 1 0
BITMAP
33C0
3FE0
38E0
7060
7060
6060
60C0
60C0
60C0
60C0
C1C0
C180
C180
ENDCHAR
STARTCHAR o.uni006F
ENCODING 111
SWIDTH 576 0
DWIDTH 14 0
BBX 11 13 1 0
BITMAP
0F80
1FC0
38E0
6060
6060
C060
C060
C060
C0C0
C1C0
E380
7F00
3E00
ENDCHAR
STARTCHAR p.uni0070
ENCODING 112
SWIDTH 576 0
DWIDTH 14 0
BBX 13 18 0 -5
BITMAP
19E0
1FF0
1C38
3818
3018
3018
3018
3038
3030
7070
78E0
6FC0
6780
6000
6000
C000
C000
C000
ENDCHAR
STARTCHAR q.uni0071
ENCODING 113
SWIDTH 576 0
DWIDTH 14 0
BBX 12 18 1 -5
BITMAP
0F30
1FB0
38F0
7060
6060
E060
C060
C060
C0E0
C0C0
E3C0
7FC0
3CC0
00C0
00C0
0180
0180
0180
ENDCHAR
STARTCHAR r.uni0072
ENCODING 114
SWIDTH 576 0
DWIDTH 14 0
BBX 11 13 2 0
BITMAP
33C0
37E0
3C20
7800
7000
6000
6000
6000
6000
6000
C000
C000
C000
ENDCHAR
STARTCHAR s.uni0073
ENCODING 115
SWIDTH 576 0
DWIDTH 14 0
BBX 11 13 1 0
BITMAP
07C0
1FE0
3860
3000
3000
3E00
1F80
03C0
00C0
00C0
41C0
FF80
3E00
ENDCHAR
STARTCHAR t.uni0074
ENCODING 116
SWIDTH 576 0
DWIDTH 14 0
BBX 11 17 2 0
BITMAP
0C00
0C00
0C00
0C00
FFE0
FFC0
1800
1800
1800
1800
1800
3000
3000
3000
3000
3F00
1F00
ENDCHAR
STARTCHAR u.uni0075
ENCODING 117
SWIDTH 576 0
DWIDTH 14 0
BBX 11 13 1 0
BITMAP
3060
3060
7060
60C0
60C0
60C0
60C0
C0C0
C1C0
C1C0
E380
FF80
7980
ENDCHAR
STARTCHAR v.uni0076
ENCODING 118
SWIDTH 576 0
DWIDTH 14 0
BBX 12 13 2 0
BITMAP
C070
C060
C0E0
60C0
61C0
6180
6300
6300
6600
3600
3C00
3C00
3800
ENDCHAR
STARTCHAR w.uni0077
ENCODING 119
SWIDTH 576 0
DWIDTH 14 0
BBX 14 13 1 0
BITMAP
C00C
C018
C018
C038
C630
C670
CE60
CE60
DEC0
DBC0
F3C0
7380
7380
ENDCHAR
STARTCHAR x.uni0078
ENCODING 120
SWIDTH 576 0
DWIDTH 14 0
BBX 14 13 -1 0
BITMAP
1C1C
0C38
0E70
06E0
07C0
0380
0380
0780
0FC0
1CC0
38E0
7060
E070
ENDCHAR
STARTCHAR y.uni0079
ENCODING 121
SWIDTH 576 0
DWIDTH 14 0
BBX 14 18 0 -5
BITMAP
301C
3018
1838
1830
1860
1860
18C0
1DC0
0D80
0F80
0F00
0E00
0E00
0C00
1C00
1800
F800
E000
ENDCHAR
STARTCHAR z.uni007A
ENCODING 122
SWIDTH 576 0
DWIDTH 14 0
BBX 12 13 1 0
BITMAP
1FF0
3FF0
00E0
01C0
0380
0300
0600
0C00
1C00
3800
7000
FFC0
FFC0
ENDCHAR
STARTCHAR braceleft.uni007B
ENCODING 123
SWIDTH 576 0
DWIDTH 14 0
BBX 11 22 2 -4
BITMAP
01E0
03E0
0700
0600
0600
0E00
0C00
0C00
0C00
1800
F800
F000
3800
1800
1800
1800
3000
3000
3000
3000
3E00
1E00
ENDCHAR
STARTCHAR bar.uni007C
ENCODING 124
SWIDTH 576 0
DWIDTH 14 0
BBX 2 23 6 -5
BITMAP
C000
C000
C000
C000
C000
C000
C000
C000
C000
C000
C000
C000
C000
C000
C000
C000
C000
C000
C000
C000
C000
C000
C000
ENDCHAR
STARTCHAR braceright.uni007D
ENCODING 125
SWIDTH 576 0
DWIDTH 14 0
BBX 11 22 0 -4
BITMAP
0F00
0F80
0180
0180
0180
0180
0300
0300
0300
0380
01E0
03E0
0700
0600
0600
0600
0C00
0C00
0C00
1C00
F800
F000
ENDCHAR
STARTCHAR asciitilde.uni007E
ENCODING 126
SWIDTH 576 0
DWIDTH 14 0
BBX 12 3 1 6
BITMAP
7C10
FFF0
83E0
ENDCHAR
STARTCHAR nbsp.uni00A0
ENCODING 160
SWIDTH 576 0
DWIDTH 14 0
BBX 0 0 0 0
BITMAP
ENDCHAR
STARTCHAR exclamdown.uni00A1
ENCODING 161
SWIDTH 576 0
DWIDTH 14 0
BBX 5 18 4 0
BITMAP
1800
1800
1800
0000
0000
0000
3000
2000
6000
6000
6000
6000
6000
6000
C000
C000
C000
C000
ENDCHAR
STARTCHAR cent.uni00A2
ENCODING 162
SWIDTH 576 0
DWIDTH 14 0
BBX 11 20 1 -4
BITMAP
0100
0100
0100
07C0
1FE0
3A40
7200
6200
C200
C600
C400
C400
C400
6480
7F80
3E00
0800
0800
0800
0800
ENDCHAR
STARTCHAR sterling.uni00A3
ENCODING 163
SWIDTH 576 0
DWIDTH 14 0
BBX 13 18 0 0
BITMAP
00F8
01F8
0388
0700
0600
0600
0E00
0C00
0C00
3FC0
3FC0
0C00
0C00
1800
1800
1800
FFE0
FFE0
ENDCHAR
STARTCHAR currency.uni00A4
ENCODING 164
SWIDTH 576 0
DWIDTH 14 0
BBX 10 10 3 3
BITMAP
8040
7F80
6180
4080
4080
4080
4080
6180
7F80
8040
ENDCHAR
STARTCHAR yen.uni00A5
ENCODING 165
SWIDTH 576 0
DWIDTH 14 0
BBX 13 18 1 0
BITMAP
6038
3070
3060
30C0
11C0
1980
FBE0
FFE0
0E00
0C00
FFE0
FFC0
0C00
0C00
1800
1800
1800
1800
ENDCHAR
STARTCHAR brokenbar.uni00A6
ENCODING 166
SWIDTH 576 0
DWIDTH 14 0
BBX 2 21 6 -4
BITMAP
C000
C000
C000
C000
C000
C000
C000
C000
C000
0000
0000
0000
C000
C000
C000
C000
C000
C000
C000
C000
C000
ENDCHAR
STARTCHAR section.uni00A7
ENCODING 167
SWIDTH 576 0
DWIDTH 14 0
BBX 11 20 1 -2
BITMAP
07C0
0FE0
1C40
1800
1800
1C00
1E00
3700
61C0
60C0
60C0
38C0
1D80
0E00
0700
0300
0300
8700
FE00
7C00
ENDCHAR
STARTCHAR dieresis.uni00A8
ENCODING 168
SWIDTH 576 0
DWIDTH 14 0
BBX 8 2 5 16
BITMAP
E700
E700
ENDCHAR
STARTCHAR copyright.uni00A9
ENCODING 169
SWIDTH 576 0
DWIDTH 14 0
BBX 14 14 0 2
BITMAP
0780
1860
2010
4788
4C48
9804
9804
9804
9804
4C48
4788
2010
1860
0780
ENDCHAR
STARTCHAR ordfeminine.uni00AA
ENCODING 170
SWIDTH 576 0
DWIDTH 14 0
BBX 9 12 2 6
BITMAP
0F00
1180
0180
0180
1F80
3180
6300
6300
6700
3B00
0000
FE00
ENDCHAR
STARTCHAR guillemotleft.uni00AB
ENCODING 171
SWIDTH 576 0
DWIDTH 14 0
BBX 11 11 1 1
BITMAP
0420
0C60
1CE0
3180
6300
C600
E600
6300
3180
1080
1080
ENDCHAR
STARTCHAR logicalnot.uni00AC
ENCODING 172
SWIDTH 576 0
DWIDTH 14 0
BBX 12 6 1 4
BITMAP
FFF0
FFF0
0030
0030
0030
0030
ENDCHAR
STARTCHAR hyphensoft.uni00AD
ENCODING 173
SWIDTH 576 0
DWIDTH 14 0
BBX 6 2 3 6
BITMAP
FC00
FC00
ENDCHAR
STARTCHAR registered.uni00AE
ENCODING 174
SWIDTH 576 0
DWIDTH 14 0
BBX 14 14 0 2
BITMAP
0780
1860
2010
4F88
4CC8
8CC4
8CC4
8F84
8F84
4DC8
4CE8
2010
1860
0780
ENDCHAR
STARTCHAR macron.uni00AF
ENCODING 175
SWIDTH 576 0
DWIDTH 14 0
BBX 7 2 5 16
BITMAP
FE00
FE00
ENDCHAR
STARTCHAR degree.uni00B0
ENCODING 176
SWIDTH 576 0
DWIDTH 14 0
BBX 7 7 3 11
BITMAP
3800
4400
8200
8200
8200
4400
3800
ENDCHAR
STARTCHAR plusminus.uni00B1
ENCODING 177
SWIDTH 576 0
DWIDTH 14 0
BBX 12 14 1 0
BITMAP
0600
0600
0600
0600
FFF0
FFF0
0600
0600
0600
0600
0000
0000
FFF0
FFF0
ENDCHAR
STARTCHAR twosuperior.uni00B2
ENCODING 178
SWIDTH 576 0
DWIDTH 14 0
BBX 8 10 3 8
BITMAP
1E00
2300
0300
0300
0600
0C00
1800
2000
4000
FC00
ENDCHAR
STARTCHAR threesuperior.uni00B3
ENCODING 179
SWIDTH 576 0
DWIDTH 14 0
BBX 8 10 3 8
BITMAP
1E00
2300
0300
0600
1800
0600
0600
0600
8C00
7800
ENDCHAR
STARTCHAR acute.uni00B4
ENCODING 180
SWIDTH 576 0
DWIDTH 14 0
BBX 5 4 6 15
BITMAP
1800
3000
6000
C000
ENDCHAR
STARTCHAR micro.uni00B5
ENCODING 181
SWIDTH 576 0
DWIDTH 14 0
BBX 13 18 0 -5
BITMAP
1818
1818
1818
3030
3030
3030
3030
3030
3060
7060
70E0
7FF0
6F70
6000
6000
C000
C000
C000
ENDCHAR
STARTCHAR paragraph.uni00B6
ENCODING 182
SWIDTH 576 0
DWIDTH 14 0
BBX 11 20 1 -2
BITMAP
0FE0
3E60
7E60
FC40
FC40
FCC0
FCC0
FCC0
7CC0
1880
0880
1980
1980
1980
1980
1100
1100
3300
3300
3300
ENDCHAR
STARTCHAR periodcentered.uni00B7
ENCODING 183
SWIDTH 576 0
DWIDTH 14 0
BBX 3 4 5 6
BITMAP
E000
E000
E000
E000
ENDCHAR
STARTCHAR cedilla.uni00B8
ENCODING 184
SWIDTH 576 0
DWIDTH 14 0
BBX 5 5 2 -5
BITMAP
3000
1800
1800
1800
F000
ENDCHAR
STARTCHAR onesuperior.uni00B9
ENCODING 185
SWIDTH 576 0
DWIDTH 14 0
BBX 5 10 4 8
BITMAP
7800
1800
1800
1800
1800
3000
3000
3000
3000
F800
ENDCHAR
STARTCHAR ordmasculine.uni00BA
ENCODING 186
SWIDTH 576 0
DWIDTH 14 0
BBX 10 12 2 6
BITMAP
0F00
1980
30C0
60C0
60C0
60C0
60C0
6180
3300
1E00
0000
FF00
ENDCHAR
STARTCHAR guillemotright.uni00BB
ENCODING 187
SWIDTH 576 0
DWIDTH 14 0
BBX 11 11 1 1
BITMAP
4200
2100
3180
18C0
0CE0
0C60
18C0
3180
E700
C600
8400
ENDCHAR
STARTCHAR onequarter.uni00BC
ENCODING 188
SWIDTH 576 0
DWIDTH 14 0
BBX 12 23 1 -3
BITMAP
7800
1800
1800
1800
1800
3000
3000
3000
3000
F800
0030
03C0
3C00
C060
00E0
01E0
01C0
02C0
04C0
0CC0
0FE0
0180
0180
ENDCHAR
STARTCHAR onehalf.uni00BD
ENCODING 189
SWIDTH 576 0
DWIDTH 14 0
BBX 12 23 1 -3
BITMAP
7800
1800
1800
1800
1800
3000
3000
3000
3000
F800
0030
03C0
3C00
C1E0
0230
0030
0030
0060
00C0
0180
0200
0400
0FC0
ENDCHAR
STARTCHAR threequarters.uni00BE
ENCODING 190
SWIDTH 576 0
DWIDTH 14 0
BBX 13 23 0 -3
BITMAP
1E00
2300
0300
0600
1800
0600
0600
0600
8C00
7800
0018
01E0
1E00
6030
0070
00F0
00E0
0160
0260
0660
07F0
00C0
00C0
ENDCHAR
STARTCHAR questiondown.uni00BF
ENCODING 191
SWIDTH 576 0
DWIDTH 14 0
BBX 9 18 2 0
BITMAP
0180
0180
0180
0000
0000
0300
0300
0300
0600
0C00
3800
7000
6000
C000
C080
E180
7F00
3E00
ENDCHAR
STARTCHAR Agrave.uni00C0
ENCODING 192
SWIDTH 576 0
DWIDTH 14 0
BBX 13 22 -1 0
BITMAP
00E0
0060
0030
0000
00E0
00E0
01E0
01A0
0330
0330
0630
0630
0E30
0C30
1C30
1830
1FF0
3FF8
3018
6018
6018
C018
ENDCHAR
STARTCHAR Aacute.uni00C1
ENCODING 193
SWIDTH 576 0
DWIDTH 14 0
BBX 13 22 -1 0
BITMAP
0030
0060
00C0
0000
00E0
00E0
01E0
01A0
0330
0330
0630
0630
0E30
0C30
1C30
1830
1FF0
3FF8
3018
6018
6018
C018
ENDCHAR
STARTCHAR Acircumflex.uni00C2
ENCODING 194
SWIDTH 576 0
DWIDTH 14 0
BBX 13 22 -1 0
BITMAP
00F0
01B0
0318
0000
00E0
00E0
01E0
01A0
0330
0330
0630
0630
0E30
0C30
1C30
1830
1FF0
3FF8
3018
6018
6018
C018
ENDCHAR
STARTCHAR Atilde.uni00C3
ENCODING 195
SWIDTH 576 0
DWIDTH 14 0
BBX 14 21 -1 0
BITMAP
01CC
0338
0000
00E0
00E0
01E0
01A0
0330
0330
0630
0630
0E30
0C30
1C30
1830
1FF0
3FF8
3018
6018
6018
C018
ENDCHAR
STARTCHAR Adieresis.uni00C4
ENCODING 196
SWIDTH 576 0
DWIDTH 14 0
BBX 15 21 -1 0
BITMAP
01CE
01CE
0000
00E0
00E0
01E0
01A0
0330
0330
0630
0630
0E30
0C30
1C30
1830
1FF0
3FF8
3018
6018
6018
C018
ENDCHAR
STARTCHAR Aring.uni00C5
ENCODING 197
SWIDTH 576 0
DWIDTH 14 0
BBX 13 22 -1 0
BITMAP
00F0
0198
0108
0198
00F0
01F0
01B0
01B0
0330
0330
0630
0630
0E30
0C30
1C30
1830
3FF8
3FF8
3018
6018
6018
C018
ENDCHAR
STARTCHAR AE.uni00C6
ENCODING 198
SWIDTH 576 0
DWIDTH 14 0
BBX 16 18 -2 0
BITMAP
00FF
01FF
01B0
03B0
0330
0370
0660
0660
0C7C
0C7C
1C60
18E0
3FC0
3FC0
30C0
60C0
60F8
C1F8
ENDCHAR
STARTCHAR Ccedilla.uni00C7
ENCODING 199
SWIDTH 576 0
DWIDTH 14 0
BBX 12 23 1 -5
BITMAP
03E0
0FF0
1C10
3800
3000
7000
6000
6000
C000
C000
C000
C000
C000
C000
E000
7080
7F80
1F00
0C00
0600
0600
0600
3C00
ENDCHAR
STARTCHAR Egrave.uni00C8
ENCODING 200
SWIDTH 576 0
DWIDTH 14 0
BBX 13 22 1 0
BITMAP
0380
0180
00C0
0000
1FF8
1FF8
1800
3000
3000
3000
3000
3000
3FE0
7FE0
6000
6000
6000
6000
6000
C000
FFC0
FFC0
ENDCHAR
STARTCHAR Eacute.uni00C9
ENCODING 201
SWIDTH 576 0
DWIDTH 14 0
BBX 13 22 1 0
BITMAP
00C0
0180
0300
0000
1FF8
1FF8
1800
3000
3000
3000
3000
3000
3FE0
7FE0
6000
6000
6000
6000
6000
C000
FFC0
FFC0
ENDCHAR
STARTCHAR Ecircumflex.uni00CA
ENCODING 202
SWIDTH 576 0
DWIDTH 14 0
BBX 13 22 1 0
BITMAP
03C0
06C0
0C60
0000
1FF8
1FF8
1800
3000
3000
3000
3000
3000
3FE0
7FE0
6000
6000
6000
6000
6000
C000
FFC0
FFC0
ENDCHAR
STARTCHAR Edieresis.uni00CB
ENCODING 203
SWIDTH 576 0
DWIDTH 14 0
BBX 13 21 1 0
BITMAP
0738
0738
0000
1FF8
1FF8
1800
3000
3000
3000
3000
3000
3FE0
7FE0
6000
6000
6000
6000
6000
C000
FFC0
FFC0
ENDCHAR
STARTCHAR Igrave.uni00CC
ENCODING 204
SWIDTH 576 0
DWIDTH 14 0
BBX 13 22 1 0
BITMAP
0380
0180
00C0
0000
1FF8
1FF8
0180
0300
0300
0300
0300
0300
0600
0600
0600
0600
0600
0E00
0C00
0C00
FFC0
FFC0
ENDCHAR
STARTCHAR Iacute.uni00CD
ENCODING 205
SWIDTH 576 0
DWIDTH 14 0
BBX 13 22 1 0
BITMAP
00C0
0180
0300
0000
1FF8
1FF8
0180
0300
0300
0300
0300
0300
0600
0600
0600
0600
0600
0E00
0C00
0C00
FFC0
FFC0
ENDCHAR
STARTCHAR Icircumflex.uni00CE
ENCODING 206
SWIDTH 576 0
DWIDTH 14 0
BBX 13 22 1 0
BITMAP
03C0
06C0
0C60
0000
1FF8
1FF8
0180
0300
0300
0300
0300
0300
0600
0600
0600
0600
0600
0E00
0C00
0C00
FFC0
FFC0
ENDCHAR
STARTCHAR Idieresis.uni00CF
ENCODING 207
SWIDTH 576 0
DWIDTH 14 0
BBX 13 21 1 0
BITMAP
0738
0738
0000
1FF8
1FF8
0180
0300
0300
0300
0300
0300
0600
0600
0600
0600
0600
0E00
0C00
0C00
FFC0
FFC0
ENDCHAR
STARTCHAR Eth.uni00D0
ENCODING 208
SWIDTH 576 0
DWIDTH 14 0
BBX 13 18 0 0
BITMAP
1FC0
1FE0
1870
3038
3018
3018
3018
3018
FE18
FE18
6030
6030
6030
6060
60E0
C1C0
FF80
FE00
ENDCHAR
STARTCHAR Ntilde.uni00D1
ENCODING 209
SWIDTH 576 0
DWIDTH 14 0
BBX 14 21 0 0
BITMAP
0398
0670
0000
1C0C
1C0C
1E0C
3618
3618
3618
3618
3318
3318
6330
6330
61B0
61B0
61B0
61B0
C1E0
C0E0
C0E0
ENDCHAR
STARTCHAR Ograve.uni00D2
ENCODING 210
SWIDTH 576 0
DWIDTH 14 0
BBX 12 22 1 0
BITMAP
0700
0300
0180
0000
07C0
0FE0
1C60
3830
3030
6030
6030
6030
E030
C070
C060
C060
C060
C0C0
C1C0
E380
7F00
3E00
ENDCHAR
STARTCHAR Oacute.uni00D3
ENCODING 211
SWIDTH 576 0
DWIDTH 14 0
BBX 12 22 1 0
BITMAP
0180
0300
0600
0000
07C0
0FE0
1C60
3830
3030
6030
6030
6030
E030
C070
C060
C060
C060
C0C0
C1C0
E380
7F00
3E00
ENDCHAR
STARTCHAR Ocircumflex.uni00D4
ENCODING 212
SWIDTH 576 0
DWIDTH 14 0
BBX 12 22 1 0
BITMAP
0780
0D80
18C0
0000
07C0
0FE0
1C60
3830
3030
6030
6030
6030
E030
C070
C060
C060
C060
C0C0
C1C0
E380
7F00
3E00
ENDCHAR
STARTCHAR Otilde.uni00D5
ENCODING 213
SWIDTH 576 0
DWIDTH 14 0
BBX 12 21 1 0
BITMAP
0E60
19C0
0000
07C0
0FE0
1C60
3830
3030
6030
6030
6030
E030
C070
C060
C060
C060
C0C0
C1C0
E380
7F00
3E00
ENDCHAR
STARTCHAR Odieresis.uni00D6
ENCODING 214
SWIDTH 576 0
DWIDTH 14 0
BBX 12 21 1 0
BITMAP
0E70
0E70
0000
07C0
0FE0
1C60
3830
3030
6030
6030
6030
E030
C070
C060
C060
C060
C0C0
C1C0
E380
7F00
3E00
ENDCHAR
STARTCHAR multiply.uni00D7
ENCODING 215
SWIDTH 576 0
DWIDTH 14 0
BBX 10 11 2 2
BITMAP
4080
E1C0
7380
3300
1E00
0C00
1E00
3300
7380
E1C0
4080
ENDCHAR
STARTCHAR Oslash.uni00D8
ENCODING 216
SWIDTH 576 0
DWIDTH 14 0
BBX 13 18 0 0
BITMAP
03E8
07F8
0E38
1C38
1878
3058
30D8
3198
7318
6238
6630
6C30
7830
7060
70E0
71C0
7F80
DF00
ENDCHAR
STARTCHAR Ugrave.uni00D9
ENCODING 217
SWIDTH 576 0
DWIDTH 14 0
BBX 13 22 1 0
BITMAP
0380
0180
00C0
0000
3018
3030
3030
3030
6030
6030
6070
6060
6060
6060
C060
C060
C0C0
C0C0
C0C0
E180
7F00
3E00
ENDCHAR
STARTCHAR Uacute.uni00DA
ENCODING 218
SWIDTH 576 0
DWIDTH 14 0
BBX 13 22 1 0
BITMAP
00C0
0180
0300
0000
3018
3030
3030
3030
6030
6030
6070
6060
6060
6060
C060
C060
C0C0
C0C0
C0C0
E180
7F00
3E00
ENDCHAR
STARTCHAR Ucircumflex.uni00DB
ENCODING 219
SWIDTH 576 0
DWIDTH 14 0
BBX 13 22 1 0
BITMAP
03C0
06C0
0C60
0000
3018
3030
3030
3030
6030
6030
6070
6060
6060
6060
C060
C060
C0C0
C0C0
C0C0
E180
7F00
3E00
ENDCHAR
STARTCHAR Udieresis.uni00DC
ENCODING 220
SWIDTH 576 0
DWIDTH 14 0
BBX 13 21 1 0
BITMAP
0738
0738
0000
3018
3030
3030
3030
6030
6030
6070
6060
6060
6060
C060
C060
C0C0
C0C0
C0C0
E180
7F00
3E00
ENDCHAR
STARTCHAR Yacute.uni00DD
ENCODING 221
SWIDTH 576 0
DWIDTH 14 0
BBX 13 22 2 0
BITMAP
0180
0300
0600
0000
C038
E070
6060
60C0
61C0
3380
3300
3600
1E00
1C00
1800
1800
1800
1800
3000
3000
3000
3000
ENDCHAR
STARTCHAR Thorn.uni00DE
ENCODING 222
SWIDTH 576 0
DWIDTH 14 0
BBX 12 18 1 0
BITMAP
1800
1800
1800
3FC0
3FE0
3070
3030
3030
3030
6070
60E0
7FC0
7F00
6000
6000
C000
C000
C000
ENDCHAR
STARTCHAR germandbls.uni00DF
ENCODING 223
SWIDTH 576 0
DWIDTH 14 0
BBX 12 18 1 0
BITMAP
03C0
0FE0
1C70
1830
1830
38E0
31C0
3300
3300
33C0
70E0
6060
6060
6060
6060
F0C0
DFC0
CF00
ENDCHAR
STARTCHAR agrave.uni00E0
ENCODING 224
SWIDTH 576 0
DWIDTH 14 0
BBX 11 19 1 0
BITMAP
0C00
0600
0200
0300
0000
0000
0F80
3FC0
20E0
0060
0060
1FE0
7FE0
60C0
C0C0
C1C0
E3C0
FEC0
7D80
ENDCHAR
STARTCHAR aacute.uni00E1
ENCODING 225
SWIDTH 576 0
DWIDTH 14 0
BBX 11 19 1 0
BITMAP
00C0
0180
0300
0600
0000
0000
0F80
3FC0
20E0
0060
0060
1FE0
7FE0
60C0
C0C0
C1C0
E3C0
FEC0
7D80
ENDCHAR
STARTCHAR acircumflex.uni00E2
ENCODING 226
SWIDTH 576 0
DWIDTH 14 0
BBX 11 19 1 0
BITMAP
0300
0780
0C80
18C0
0000
0000
0F80
3FC0
20E0
0060
0060
1FE0
7FE0
60C0
C0C0
C1C0
E3C0
FEC0
7D80
ENDCHAR
STARTCHAR atilde.uni00E3
ENCODING 227
SWIDTH 576 0
DWIDTH 14 0
BBX 12 19 1 0
BITMAP
0710
0DB0
08E0
0000
0000
0000
0F80
3FC0
20E0
0060
0060
1FE0
7FE0
60C0
C0C0
C1C0
E3C0
FEC0
7D80
ENDCHAR
STARTCHAR adieresis.uni00E4
ENCODING 228
SWIDTH 576 0
DWIDTH 14 0
BBX 12 18 1 0
BITMAP
0E70
0E70
0000
0000
0000
0F80
3FC0
20E0
0060
0060
1FE0
7FE0
60C0
C0C0
C1C0
E3C0
FEC0
7D80
ENDCHAR
STARTCHAR aring.uni00E5
ENCODING 229
SWIDTH 576 0
DWIDTH 14 0
BBX 11 21 1 0
BITMAP
03C0
0660
0420
0420
0660
03C0
0000
0000
0F80
3FC0
20E0
0060
0060
1FE0
7FE0
60C0
C0C0
C1C0
E3C0
FEC0
7D80
ENDCHAR
STARTCHAR ae.uni00E6
ENCODING 230
SWIDTH 576 0
DWIDTH 14 0
BBX 14 13 -1 0
BITMAP
0E78
3FFC
239C
030C
030C
1FF8
7FF8
E300
C300
C700
C710
FFF0
79E0
ENDCHAR
STARTCHAR ccedilla.uni00E7
ENCODING 231
SWIDTH 576 0
DWIDTH 14 0
BBX 11 18 2 -5
BITMAP
07C0
1FE0
3820
7000
6000
C000
C000
C000
C000
C000
E080
7F80
3F00
1800
0C00
0C00
0C00
7800
ENDCHAR
STARTCHAR egrave.uni00E8
ENCODING 232
SWIDTH 576 0
DWIDTH 14 0
BBX 12 19 1 0
BITMAP
0C00
0600
0200
0300
0000
0000
07C0
1FE0
3870
7030
6030
FFF0
FFF0
C000
C000
C000
E040
7FC0
1F80
ENDCHAR
STARTCHAR eacute.uni00E9
ENCODING 233
SWIDTH 576 0
DWIDTH 14 0
BBX 12 19 1 0
BITMAP
00C0
0180
0300
0600
0000
0000
07C0
1FE0
3870
7030
6030
FFF0
FFF0
C000
C000
C000
E040
7FC0
1F80
ENDCHAR
STARTCHAR ecircumflex.uni00EA
ENCODING 234
SWIDTH 576 0
DWIDTH 14 0
BBX 12 19 1 0
BITMAP
0300
0780
0C80
18C0
0000
0000
07C0
1FE0
3870
7030
6030
FFF0
FFF0
C000
C000
C000
E040
7FC0
1F80
ENDCHAR
STARTCHAR edieresis.uni00EB
ENCODING 235
SWIDTH 576 0
DWIDTH 14 0
BBX 12 18 1 0
BITMAP
0E70
0E70
0000
0000
0000
07C0
1FE0
3870
7030
6030
FFF0
FFF0
C000
C000
C000
E040
7FC0
1F80
ENDCHAR
STARTCHAR igrave.uni00EC
ENCODING 236
SWIDTH 576 0
DWIDTH 14 0
BBX 10 19 1 0
BITMAP
0C00
0600
0200
0300
0000
0000
1F00
1F00
0300
0600
0600
0600
0600
0600
0C00
0C00
0C00
FFC0
FFC0
ENDCHAR
STARTCHAR iacute.uni00ED
ENCODING 237
SWIDTH 576 0
DWIDTH 14 0
BBX 10 19 1 0
BITMAP
00C0
0180
0300
0600
0000
0000
1F00
1F00
0300
0600
0600
0600
0600
0600
0C00
0C00
0C00
FFC0
FFC0
ENDCHAR
STARTCHAR icircumflex.uni00EE
ENCODING 238
SWIDTH 576 0
DWIDTH 14 0
BBX 10 19 1 0
BITMAP
0300
0780
0C80
18C0
0000
0000
1F00
1F00
0300
0600
0600
0600
0600
0600
0C00
0C00
0C00
FFC0
FFC0
ENDCHAR
STARTCHAR idieresis.uni00EF
ENCODING 239
SWIDTH 576 0
DWIDTH 14 0
BBX 12 18 1 0
BITMAP
0E70
0E70
0000
0000
0000
1F00
1F00
0300
0600
0600
0600
0600
0600
0C00
0C00
0C00
FFC0
FFC0
ENDCHAR
STARTCHAR eth.uni00F0
ENCODING 240
SWIDTH 576 0
DWIDTH 14 0
BBX 11 18 1 0
BITMAP
0E00
07E0
0780
1980
01C0
0FC0
1FE0
3860
6060
6060
C060
C060
C060
C0C0
C0C0
E380
7F00
3E00
ENDCHAR
STARTCHAR ntilde.uni00F1
ENCODING 241
SWIDTH 576 0
DWIDTH 14 0
BBX 12 19 1 0
BITMAP
0710
0DB0
08E0
0000
0000
0000
33C0
3FE0
38E0
7060
7060
6060
60C0
60C0
60C0
60C0
C1C0
C180
C180
ENDCHAR
STARTCHAR ograve.uni00F2
ENCODING 242
SWIDTH 576 0
DWIDTH 14 0
BBX 11 19 1 0
BITMAP
0C00
0600
0200
0300
0000
0000
0F80
1FC0
38E0
6060
6060
C060
C060
C060
C0C0
C1C0
E380
7F00
3E00
ENDCHAR
STARTCHAR oacute.uni00F3
ENCODING 243
SWIDTH 576 0
DWIDTH 14 0
BBX 11 19 1 0
BITMAP
00C0
0180
0300
0600
0000
0000
0F80
1FC0
38E0
6060
6060
C060
C060
C060
C0C0
C1C0
E380
7F00
3E00
ENDCHAR
STARTCHAR ocircumflex.uni00F4
ENCODING 244
SWIDTH 576 0
DWIDTH 14 0
BBX 11 19 1 0
BITMAP
0300
0780
0C80
18C0
0000
0000
0F80
1FC0
38E0
6060
6060
C060
C060
C060
C0C0
C1C0
E380
7F00
3E00
ENDCHAR
STARTCHAR otilde.uni00F5
ENCODING 245
SWIDTH 576 0
DWIDTH 14 0
BBX 12 19 1 0
BITMAP
0710
0DB0
08E0
0000
0000
0000
0F80
1FC0
38E0
6060
6060
C060
C060
C060
C0C0
C1C0
E380
7F00
3E00
ENDCHAR
STARTCHAR odieresis.uni00F6
ENCODING 246
SWIDTH 576 0
DWIDTH 14 0
BBX 12 18 1 0
BITMAP
0E70
0E70
0000
0000
0000
0F80
1FC0
38E0
6060
6060
C060
C060
C060
C0C0
C1C0
E380
7F00
3E00
ENDCHAR
STARTCHAR divide.uni00F7
ENCODING 247
SWIDTH 576 0
DWIDTH 14 0
BBX 13 12 1 2
BITMAP
0700
0700
0700
0000
0000
FFF8
FFF8
0000
0000
0700
0700
0700
ENDCHAR
STARTCHAR oslash.uni00F8
ENCODING 248
SWIDTH 576 0
DWIDTH 14 0
BBX 11 14 1 -1
BITMAP
0020
0FA0
1FE0
38E0
71E0
6360
C660
C460
C860
D8C0
F1C0
E380
FF00
BE00
ENDCHAR
STARTCHAR ugrave.uni00F9
ENCODING 249
SWIDTH 576 0
DWIDTH 14 0
BBX 11 19 1 0
BITMAP
0C00
0600
0200
0300
0000
0000
3060
3060
7060
60C0
60C0
60C0
60C0
C0C0
C1C0
C1C0
E380
FF80
7980
ENDCHAR
STARTCHAR uacute.uni00FA
ENCODING 250
SWIDTH 576 0
DWIDTH 14 0
BBX 11 19 1 0
BITMAP
00C0
0180
0300
0600
0000
0000
3060
3060
7060
60C0
60C0
60C0
60C0
C0C0
C1C0
C1C0
E380
FF80
7980
ENDCHAR
STARTCHAR ucircumflex.uni00FB
ENCODING 251
SWIDTH 576 0
DWIDTH 14 0
BBX 11 19 1 0
BITMAP
0300
0780
0C80
18C0
0000
0000
3060
3060
7060
60C0
60C0
60C0
60C0
C0C0
C1C0
C1C0
E380
FF80
7980
ENDCHAR
STARTCHAR udieresis.uni00FC
ENCODING 252
SWIDTH 576 0
DWIDTH 14 0
BBX 12 18 1 0
BITMAP
0E70
0E70
0000
0000
0000
3060
3060
7060
60C0
60C0
60C0
60C0
C0C0
C1C0
C1C0
E380
FF80
7980
ENDCHAR
STARTCHAR yacute.uni00FD
ENCODING 253
SWIDTH 576 0
DWIDTH 14 0
BBX 14 24 0 -5
BITMAP
0060
00C0
0180
0300
0000
0000
301C
3018
1838
1830
1860
1860
18C0
1DC0
0D80
0F80
0F00
0E00
0E00
0C00
1C00
1800
F800
E000
ENDCHAR
STARTCHAR thorn.uni00FE
ENCODING 254
SWIDTH 576 0
DWIDTH 14 0
BBX 13 23 0 -5
BITMAP
0C00
0C00
0C00
1800
1800
19E0
1FF0
1C38
1818
3818
3018
3018
3018
3030
7030
7860
6FC0
6780
6000
6000
C000
C000
C000
ENDCHAR
STARTCHAR ydieresis.uni00FF
ENCODING 255
SWIDTH 576 0
DWIDTH 14 0
BBX 14 23 0 -5
BITMAP
0738
0738
0000
0000
0000
301C
3018
1838
1830
1860
1860
18C0
1DC0
0D80
0F80
0F00
0E00
0E00
0C00
1C00
1800
F800
E000
ENDCHAR
STARTCHAR Cacute.uni0106
ENCODING 262
SWIDTH 576 0
DWIDTH 14 0
BBX 12 22 1 0
BITMAP
0060
00C0
0180
0000
03E0
0FF0
1C10
3800
3000
7000
6000
6000
C000
C000
C000
C000
C000
C000
E000
7080
7F80
1F00
ENDCHAR
STARTCHAR cacute.uni0107
ENCODING 263
SWIDTH 576 0
DWIDTH 14 0
BBX 11 19 2 0
BITMAP
00C0
0180
0300
0600
0000
0000
07C0
1FE0
3820
7000
6000
C000
C000
C000
C000
C000
E080
7F80
3F00
ENDCHAR
STARTCHAR Ccaron.uni010C
ENCODING 268
SWIDTH 576 0
DWIDTH 14 0
BBX 13 22 1 0
BITMAP
0318
01B0
01E0
0000
03E0
0FF0
1C10
3800
3000
7000
6000
6000
C000
C000
C000
C000
C000
C000
E000
7080
7F80
1F00
ENDCHAR
STARTCHAR ccaron.uni010D
ENCODING 269
SWIDTH 576 0
DWIDTH 14 0
BBX 11 19 2 0
BITMAP
0C60
04C0
0780
0300
0000
0000
07C0
1FE0
3820
7000
6000
C000
C000
C000
C000
C000
E080
7F80
3F00
ENDCHAR
STARTCHAR dcroat.uni0111
ENCODING 273
SWIDTH 576 0
DWIDTH 14 0
BBX 15 18 1 0
BITMAP
0018
0018
01FE
01FE
0038
0FB0
1FF0
38F0
7070
6070
C060
C060
C060
C060
C0E0
E1C0
7FC0
3CC0
ENDCHAR
STARTCHAR Gbreve.uni011E
ENCODING 286
SWIDTH 576 0
DWIDTH 14 0
BBX 12 21 1 0
BITMAP
0430
03E0
0000
03E0
0FF0
1C10
3800
3000
6000
6000
6000
C000
C3E0
C3E0
C0E0
C0C0
C0C0
E0C0
71C0
7FC0
1F00
ENDCHAR
STARTCHAR gbreve.uni011F
ENCODING 287
SWIDTH 576 0
DWIDTH 14 0
BBX 12 24 1 -5
BITMAP
0860
0FC0
0780
0000
0000
0000
0F30
1FB0
38F0
6060
6060
C060
C060
C0E0
C0C0
C1C0
E3C0
7EC0
3DC0
0180
0180
8300
FF00
7C00
ENDCHAR
STARTCHAR Idotaccent.uni0130
ENCODING 304
SWIDTH 576 0
DWIDTH 14 0
BBX 13 21 1 0
BITMAP
01C0
01C0
0000
1FF8
1FF8
0180
0300
0300
0300
0300
0300
0600
0600
0600
0600
0600
0E00
0C00
0C00
FFC0
FFC0
ENDCHAR
STARTCHAR dotlessi.uni0131
ENCODING 305
SWIDTH 576 0
DWIDTH 14 0
BBX 10 13 1 0
BITMAP
1F00
1F00
0300
0600
0600
0600
0600
0600
0C00
0C00
0C00
FFC0
FFC0
ENDCHAR
STARTCHAR Lslash.uni0141
ENCODING 321
SWIDTH 576 0
DWIDTH 14 0
BBX 12 18 0 0
BITMAP
0C00
0C00
0C00
1800
1800
1980
1B80
1E00
1C00
3800
7000
F000
3000
3000
3000
6000
7FF0
7FF0
ENDCHAR
STARTCHAR lslash.uni0142
ENCODING 322
SWIDTH 576 0
DWIDTH 14 0
BBX 11 18 1 0
BITMAP
3F00
3F00
0300
0300
0620
0660
07C0
0700
0E00
1C00
6C00
CC00
1800
1800
1800
1C00
1FC0
0FC0
ENDCHAR
STARTCHAR OE.uni0152
ENCODING 338
SWIDTH 576 0
DWIDTH 14 0
BBX 15 18 0 0
BITMAP
07FE
1FFC
18C0
30C0
30C0
6180
6180
6180
E1F8
C1F8
C380
C300
C300
C300
C300
E300
7FF0
3FF0
ENDCHAR
STARTCHAR oe.uni0153
ENCODING 339
SWIDTH 576 0
DWIDTH 14 0
BBX 14 13 0 0
BITMAP
1E78
3FFC
33CC
618C
618C
63FC
C3F8
C300
C300
C700
C710
FFF0
79E0
ENDCHAR
STARTCHAR Scedilla.uni015E
ENCODING 350
SWIDTH 576 0
DWIDTH 14 0
BBX 12 23 1 -5
BITMAP
07E0
1FF0
3830
7000
6000
6000
6000
7800
3E00
0FC0
01C0
0060
0060
0060
00E0
81C0
FF80
7E00
1800
0C00
0C00
0C00
7800
ENDCHAR
STARTCHAR scedilla.uni015F
ENCODING 351
SWIDTH 576 0
DWIDTH 14 0
BBX 11 18 1 -5
BITMAP
07C0
1FE0
3860
3000
3000
3E00
1F80
03C0
00C0
00C0
41C0
FF80
3E00
1800
0C00
0C00
0C00
7800
ENDCHAR
STARTCHAR Scaron.uni0160
ENCODING 352
SWIDTH 576 0
DWIDTH 14 0
BBX 12 22 1 0
BITMAP
0630
0360
03C0
0000
07E0
1FF0
3830
7000
6000
6000
6000
7800
3E00
0FC0
01C0
0060
0060
0060
00E0
81C0
FF80
7E00
ENDCHAR
STARTCHAR scaron.uni0161
ENCODING 353
SWIDTH 576 0
DWIDTH 14 0
BBX 11 19 1 0
BITMAP
0C60
04C0
0780
0300
0000
0000
07C0
1FE0
3860
3000
3000
3E00
1F80
03C0
00C0
00C0
41C0
FF80
3E00
ENDCHAR
STARTCHAR Ydieresis.uni0178
ENCODING 376
SWIDTH 576 0
DWIDTH 14 0
BBX 13 21 2 0
BITMAP
0E70
0E70
0000
C038
E070
6060
60C0
61C0
3380
3300
3600
1E00
1C00
1800
1800
1800
1800
3000
3000
3000
3000
ENDCHAR
STARTCHAR Zcaron.uni017D
ENCODING 381
SWIDTH 576 0
DWIDTH 14 0
BBX 14 22 0 0
BITMAP
0318
01B0
01E0
0000
1FFC
1FFC
0018
0030
0070
00E0
00C0
0180
0380
0700
0600
0C00
1C00
3800
3000
6000
FFE0
FFE0
ENDCHAR
STARTCHAR zcaron.uni017E
ENCODING 382
SWIDTH 576 0
DWIDTH 14 0
BBX 12 19 1 0
BITMAP
0C60
04C0
0780
0300
0000
0000
1FF0
3FF0
00E0
01C0
0380
0300
0600
0C00
1C00
3800
7000
FFC0
FFC0
ENDCHAR
STARTCHAR florin.uni0192
ENCODING 402
SWIDTH 576 0
DWIDTH 14 0
BBX 13 23 0 -5
BITMAP
0070
00F8
01C0
0180
0180
0180
0180
0300
1FF0
1FF0
0300
0300
0300
0600
0600
0600
0600
0600
0600
0C00
9C00
F800
7000
ENDCHAR
STARTCHAR circumflex.uni02C6
ENCODING 710
SWIDTH 576 0
DWIDTH 14 0
BBX 7 4 4 15
BITMAP
1800
3C00
6400
C600
ENDCHAR
STARTCHAR caron.uni02C7
ENCODING 711
SWIDTH 576 0
DWIDTH 14 0
BBX 7 4 5 15
BITMAP
C600
4C00
7800
3000
ENDCHAR
STARTCHAR breve.uni02D8
ENCODING 728
SWIDTH 576 0
DWIDTH 14 0
BBX 7 3 5 16
BITMAP
8600
FC00
7800
ENDCHAR
STARTCHAR dotaccent.uni02D9
ENCODING 729
SWIDTH 576 0
DWIDTH 14 0
BBX 3 2 7 16
BITMAP
E000
E000
ENDCHAR
STARTCHAR ring.uni02DA
ENCODING 730
SWIDTH 576 0
DWIDTH 14 0
BBX 6 6 6 15
BITMAP
7800
CC00
8400
8400
CC00
7800
ENDCHAR
STARTCHAR ogonek.uni02DB
ENCODING 731
SWIDTH 576 0
DWIDTH 14 0
BBX 4 5 3 -5
BITMAP
6000
4000
C000
C000
7000
ENDCHAR
STARTCHAR tilde.uni02DC
ENCODING 732
SWIDTH 576 0
DWIDTH 14 0
BBX 8 3 5 16
BITMAP
7100
DB00
8E00
ENDCHAR
STARTCHAR hungarumlaut.uni02DD
ENCODING 733
SWIDTH 576 0
DWIDTH 14 0
BBX 9 4 5 15
BITMAP
3B80
3300
6600
CC00
ENDCHAR
STARTCHAR uni03A9.uni03A9
ENCODING 937
SWIDTH 576 0
DWIDTH 14 0
BBX 14 17 1 0
BITMAP
01E0
07F8
0E18
1818
380C
300C
300C
300C
600C
600C
6018
6018
3030
3030
1860
F9F0
F9F0
ENDCHAR
STARTCHAR pi.uni03C0
ENCODING 960
SWIDTH 576 0
DWIDTH 14 0
BBX 13 13 2 0
BITMAP
7FF8
7FF8
3060
3060
60C0
60C0
60C0
60C0
60C0
60C0
C180
C1E0
C0E0
ENDCHAR
STARTCHAR endash.uni2013
ENCODING 8211
SWIDTH 576 0
DWIDTH 14 0
BBX 8 2 3 5
BITMAP
FF00
FF00
ENDCHAR
STARTCHAR emdash.uni2014
ENCODING 8212
SWIDTH 576 0
DWIDTH 14 0
BBX 12 2 1 5
BITMAP
FFF0
FFF0
ENDCHAR
STARTCHAR quoteleft.uni2018
ENCODING 8216
SWIDTH 576 0
DWIDTH 14 0
BBX 5 7 5 11
BITMAP
1800
3000
7000
6000
E000
E000
E000
ENDCHAR
STARTCHAR quoteright.uni2019
ENCODING 8217
SWIDTH 576 0
DWIDTH 14 0
BBX 5 7 6 11
BITMAP
3800
3800
3800
3000
7000
6000
C000
ENDCHAR
STARTCHAR quotesinglbase.uni201A
ENCODING 8218
SWIDTH 576 0
DWIDTH 14 0
BBX 5 7 3 -3
BITMAP
3800
3800
3800
3000
7000
6000
C000
ENDCHAR
STARTCHAR quotedblleft.uni201C
ENCODING 8220
SWIDTH 576 0
DWIDTH 14 0
BBX 10 7 3 11
BITMAP
18C0
3180
7380
6300
E700
E700
E700
ENDCHAR
STARTCHAR quotedblright.uni201D
ENCODING 8221
SWIDTH 576 0
DWIDTH 14 0
BBX 10 7 3 11
BITMAP
39C0
39C0
39C0
3180
7380
6300
C600
ENDCHAR
STARTCHAR quotedblbase.uni201E
ENCODING 8222
SWIDTH 576 0
DWIDTH 14 0
BBX 10 7 0 -3
BITMAP
39C0
39C0
39C0
3180
7380
6300
C600
ENDCHAR
STARTCHAR dagger.uni2020
ENCODING 8224
SWIDTH 576 0
DWIDTH 14 0
BBX 11 20 2 -2
BITMAP
0600
0600
0600
0600
0600
FFE0
FFE0
0C00
0C00
0C00
1C00
1800
1800
1800
1800
1800
3000
3000
3000
3000
ENDCHAR
STARTCHAR daggerdbl.uni2021
ENCODING 8225
SWIDTH 576 0
DWIDTH 14 0
BBX 11 20 1 -2
BITMAP
0300
0300
0300
0300
0600
7FE0
7FE0
0600
0600
0E00
0C00
0C00
0C00
FFC0
FFC0
0C00
1C00
1800
1800
1800
ENDCHAR
STARTCHAR bullet.uni2022
ENCODING 8226
SWIDTH 576 0
DWIDTH 14 0
BBX 7 7 4 5
BITMAP
3800
7C00
FE00
FE00
FE00
7C00
3800
ENDCHAR
STARTCHAR ellipsis.uni2026
ENCODING 8230
SWIDTH 576 0
DWIDTH 14 0
BBX 13 4 -1 0
BITMAP
E738
E738
E738
E738
ENDCHAR
STARTCHAR perthousand.uni2030
ENCODING 8240
SWIDTH 576 0
DWIDTH 14 0
BBX 13 18 0 0
BITMAP
3000
4800
8400
8400
4800
3000
0018
00E0
0700
3800
C000
0000
1860
2490
4308
4308
2490
1860
ENDCHAR
STARTCHAR guilsinglleft.uni2039
ENCODING 8249
SWIDTH 576 0
DWIDTH 14 0
BBX 6 11 3 1
BITMAP
0400
0C00
1800
3000
6000
C000
C000
6000
3000
1800
0800
ENDCHAR
STARTCHAR guilsinglright.uni203A
ENCODING 8250
SWIDTH 576 0
DWIDTH 14 0
BBX 6 11 4 1
BITMAP
4000
6000
3000
1800
0C00
0C00
1800
3000
6000
C000
8000
ENDCHAR
STARTCHAR Euro.uni20AC
ENCODING 8364
SWIDTH 576 0
DWIDTH 14 0
BBX 14 18 0 0
BITMAP
00F8
03FC
070C
0E00
1C00
1800
7FC0
7FC0
3000
3000
FF80
FF80
3000
3000
3000
1820
1FC0
0F80
ENDCHAR
STARTCHAR trademark.uni2122
ENCODING 8482
SWIDTH 576 0
DWIDTH 14 0
BBX 13 7 0 11
BITMAP
FA08
2318
22A8
2248
2208
2208
2208
ENDCHAR
STARTCHAR partialdiff.uni2202
ENCODING 8706
SWIDTH 576 0
DWIDTH 14 0
BBX 10 16 2 0
BITMAP
1E00
3900
1080
00C0
00C0
00C0
00C0
3CC0
72C0
61C0
C1C0
C180
C180
C300
6600
3C00
ENDCHAR
STARTCHAR Delta.uni2206
ENCODING 8710
SWIDTH 576 0
DWIDTH 14 0
BBX 14 17 0 0
BITMAP
0300
0780
0780
0780
0FC0
0FC0
0FC0
1CE0
1CE0
1CE0
3870
3870
3870
7038
7038
FFF8
FFFC
ENDCHAR
STARTCHAR Pi.uni03A0
ENCODING 928
SWIDTH 576 0
DWIDTH 14 0
BBX 14 18 1 0
BITMAP
1FFC
1FFC
180C
3018
3018
3018
3018
3018
3018
6030
6030
6030
6030
6030
6030
C060
C060
C060
ENDCHAR
STARTCHAR summation.uni2211
ENCODING 8721
SWIDTH 576 0
DWIDTH 14 0
BBX 11 23 2 -5
BITMAP
FFE0
FFE0
6000
6000
3000
1000
1800
0C00
0400
0600
0300
0300
0300
0600
0C00
0C00
1800
1000
3000
6000
6000
FFE0
FFE0
ENDCHAR
STARTCHAR minus.uni2212
ENCODING 8722
SWIDTH 576 0
DWIDTH 14 0
BBX 12 2 1 7
BITMAP
FFF0
FFF0
ENDCHAR
STARTCHAR slashdiv.uni2215
ENCODING 8725
SWIDTH 576 0
DWIDTH 14 0
BBX 12 20 0 -2
BITMAP
0030
0060
0060
00C0
00C0
0180
0180
0300
0300
0600
0600
0C00
0C00
1800
1800
3000
3000
6000
6000
C000
ENDCHAR
STARTCHAR bulletop.uni2219
ENCODING 8729
SWIDTH 576 0
DWIDTH 14 0
BBX 3 4 5 6
BITMAP
E000
E000
E000
E000
ENDCHAR
STARTCHAR radical.uni221A
ENCODING 8730
SWIDTH 576 0
DWIDTH 14 0
BBX 13 21 1 -1
BITMAP
0018
0018
0010
0030
0030
0020
0060
0060
0040
00C0
F0C0
3080
3180
1980
1900
1B00
0B00
0E00
0E00
0600
0400
ENDCHAR
STARTCHAR infinity.uni221E
ENCODING 8734
SWIDTH 576 0
DWIDTH 14 0
BBX 13 9 0 3
BITMAP
38E0
7DF0
CD98
8708
8208
8708
CD98
7DF0
38E0
ENDCHAR
STARTCHAR integral.uni222B
ENCODING 8747
SWIDTH 576 0
DWIDTH 14 0
BBX 10 22 2 -4
BITMAP
0180
02C0
06C0
0400
0400
0C00
0C00
0C00
0C00
0C00
0C00
0C00
0C00
0C00
0C00
0C00
0C00
0800
0800
D800
D000
E000
ENDCHAR
STARTCHAR approxequal.uni2248
ENCODING 8776
SWIDTH 576 0
DWIDTH 14 0
BBX 12 7 1 4
BITMAP
7C10
FFF0
83E0
0000
7C10
FFF0
83E0
ENDCHAR
STARTCHAR notequal.uni2260
ENCODING 8800
SWIDTH 576 0
DWIDTH 14 0
BBX 12 13 1 1
BITMAP
0020
0060
00C0
FFF0
FFF0
0300
0600
0C00
FFF0
FFF0
3000
6000
4000
ENDCHAR
STARTCHAR lessequal.uni2264
ENCODING 8804
SWIDTH 576 0
DWIDTH 14 0
BBX 12 13 1 0
BITMAP
0030
01F0
0FE0
7F00
F800
F800
7F00
0FE0
01F0
0030
0000
FFF0
FFF0
ENDCHAR
STARTCHAR greaterequal.uni2265
ENCODING 8805
SWIDTH 576 0
DWIDTH 14 0
BBX 12 13 1 0
BITMAP
C000
F800
7F00
0FE0
00F0
01F0
0FE0
7F00
F800
C000
0000
FFF0
FFF0
ENDCHAR
STARTCHAR fi.uniFB01
ENCODING 64257
SWIDTH 576 0
DWIDTH 14 0
BBX 14 18 1 0
BITMAP
07CC
1FDC
1818
3000
3000
FFF0
FFF0
3030
7060
6060
6060
6060
6060
6060
60E0
C0C0
C0C0
C0C0
ENDCHAR
STARTCHAR fl.uniFB02
ENCODING 64258
SWIDTH 576 0
DWIDTH 14 0
BBX 13 18 1 0
BITMAP
07F8
1FF8
1818
3030
3030
FF30
FF30
3030
7030
6060
6060
6060
6060
6060
6060
C0C0
C0C0
C0C0
ENDCHAR
STARTCHAR y-hat.uni0177
ENCODING 375
SWIDTH 576 0
DWIDTH 14 0
BBX 14 24 0 -5
BITMAP
00C0
01E0
0320
0630
0000
0000
301C
3018
1838
1830
1860
1860
18C0
1DC0
0D80
0F80
0F00
0E00
0E00
0C00
1C00
1800
F800
E000
ENDCHAR
STARTCHAR y-bar.uni0233
ENCODING 563
SWIDTH 576 0
DWIDTH 14 0
BBX 14 23 0 -5
BITMAP
0FF8
0FF8
0000
0000
0000
301C
3018
1838
1830
1860
1860
18C0
1DC0
0D80
0F80
0F00
0E00
0E00
0C00
1C00
1800
F800
E000
ENDCHAR
STARTCHAR xsuperior.uni02E3
ENCODING 739
SWIDTH 1308 0
DWIDTH 22 0
BBX 10 10 2 8
BITMAP
71C0
3180
1B00
1E00
0C00
0C00
1E00
3600
6300
E380
ENDCHAR
STARTCHAR x-hat.uni0302
ENCODING 770
SWIDTH 576 0
DWIDTH 14 0
BBX 14 19 -1 0
BITMAP
0060
00F0
0190
0318
0000
0000
1C1C
0C38
0E70
06E0
07C0
0380
0380
0780
0FC0
1CC0
38E0
7060
E070
ENDCHAR
STARTCHAR x-bar.uni0304
ENCODING 772
SWIDTH 576 0
DWIDTH 14 0
BBX 14 18 -1 0
BITMAP
0FF8
0FF8
0000
0000
0000
1C1C
0C38
0E70
06E0
07C0
0380
0380
0780
0FC0
1CC0
38E0
7060
E070
ENDCHAR
STARTCHAR Sigma.uni03A3
ENCODING 931
SWIDTH 576 0
DWIDTH 14 0
BBX 14 17 1 0
BITMAP
1FFC
1FFC
1C00
0E00
0700
0380
01C0
00E0
00E0
01C0
0380
0700
1C00
3800
7000
FFE0
FFE0
ENDCHAR
STARTCHAR theta.uni03B8
ENCODING 952
SWIDTH 832 0
DWIDTH 14 0
BBX 12 18 1 0
BITMAP
07C0
0FE0
1C60
3830
3030
6030
6030
6030
FFF0
FFF0
C060
C060
C060
C0C0
C1C0
E380
7F00
3E00
ENDCHAR
STARTCHAR mu.uni03BC
ENCODING 956
SWIDTH 576 0
DWIDTH 14 0
BBX 13 18 0 -5
BITMAP
1818
1818
1818
3030
3030
3030
3030
3030
3060
7060
70E0
7FF0
6F70
6000
6000
C000
C000
C000
ENDCHAR
STARTCHAR sigma.uni03C3
ENCODING 963
SWIDTH 1308 0
DWIDTH 22 0
BBX 14 13 1 0
BITMAP
07FC
1FFC
3980
60C0
6060
C060
C060
C060
C060
C0C0
E1C0
7F80
3E00
ENDCHAR
STARTCHAR exponent.uni1D07
ENCODING 7431
SWIDTH 576 0
DWIDTH 14 0
BBX 11 14 2 0
BITMAP
3FE0
3FE0
3000
3000
3000
3000
7FC0
7FC0
6000
6000
6000
6000
FF80
FF80
ENDCHAR
STARTCHAR arrowleft.uni2190
ENCODING 8592
SWIDTH 576 0
DWIDTH 14 0
BBX 13 11 0 1
BITMAP
0400
0C00
1800
3800
7FF8
FFF8
7FF8
3800
1800
0C00
0400
ENDCHAR
STARTCHAR arrowup.uni2191
ENCODING 8593
SWIDTH 576 0
DWIDTH 14 0
BBX 11 23 1 -5
BITMAP
0400
0E00
1F00
3F80
7FC0
CE60
0E00
0E00
0E00
0E00
0E00
0E00
0E00
0E00
0E00
0E00
0E00
0E00
0E00
0E00
0E00
0E00
0E00
ENDCHAR
STARTCHAR arrowright.uni2192
ENCODING 8594
SWIDTH 576 0
DWIDTH 14 0
BBX 14 11 0 1
BITMAP
0080
00C0
0060
0070
FFF8
FFFC
FFF8
0070
0060
00C0
0080
ENDCHAR
STARTCHAR arrowdown.uni2193
ENCODING 8595
SWIDTH 576 0
DWIDTH 14 0
BBX 11 23 1 -5
BITMAP
0E00
0E00
0E00
0E00
0E00
0E00
0E00
0E00
0E00
0E00
0E00
0E00
0E00
0E00
0E00
0E00
0E00
CE60
7FC0
3F80
1F00
0E00
0400
ENDCHAR
STARTCHAR uparrtipleft.uni21B0
ENCODING 8624
SWIDTH 832 0
DWIDTH 14 0
BBX 13 18 0 0
BITMAP
0400
0C00
1800
3800
7FF0
FFF8
7FF8
3838
1838
0C38
0438
0038
0038
0038
0038
0038
0038
0038
ENDCHAR
STARTCHAR uparrtipright.uni21B1
ENCODING 8625
SWIDTH 832 0
DWIDTH 14 0
BBX 13 18 1 0
BITMAP
0100
0180
00C0
00E0
7FF0
FFF8
FFF0
E0E0
E0C0
E180
E100
E000
E000
E000
E000
E000
E000
E000
ENDCHAR
STARTCHAR carriagereturn.uni21B5
ENCODING 8629
SWIDTH 576 0
DWIDTH 14 0
BBX 13 16 0 0
BITMAP
0038
0038
0038
0038
0038
0438
0C38
1838
3838
7FF8
FFF8
7FF0
3800
1800
0C00
0400
ENDCHAR
STARTCHAR mesangle.uni2221
ENCODING 8737
SWIDTH 576 0
DWIDTH 14 0
BBX 13 16 0 0
BITMAP
0060
00C0
00C0
0180
0180
0300
0600
0600
0F00
0FC0
18C0
3060
3060
6060
7FF8
FFF8
ENDCHAR
STARTCHAR eqminus.uni23BB
ENCODING 9147
SWIDTH 832 0
DWIDTH 14 0
BBX 12 2 1 12
BITMAP
FFF0
FFF0
ENDCHAR
STARTCHAR lf.uni240A
ENCODING 9226
SWIDTH 576 0
DWIDTH 14 0
BBX 13 19 0 -1
BITMAP
C000
C000
C000
C000
C000
C000
C000
F800
F800
01F8
01F8
0180
0180
01F0
01F0
0180
0180
0180
0180
ENDCHAR
STARTCHAR esc.uni241B
ENCODING 9243
SWIDTH 576 0
DWIDTH 14 0
BBX 13 23 0 -4
BITMAP
F000
8000
8000
8000
F000
8000
8000
8380
F400
0400
0200
0100
0080
0080
0080
0738
0040
0040
0040
0040
0040
0040
0038
ENDCHAR
STARTCHAR bdlvr.uni251C
ENCODING 9500
SWIDTH 576 0
DWIDTH 14 0
BBX 9 22 3 -3
BITMAP
E000
E000
E000
E000
E000
E000
E000
E000
E000
E000
FF80
FF80
FF80
E000
E000
E000
E000
E000
E000
E000
E000
E000
ENDCHAR
STARTCHAR block.uni2588
ENCODING 9608
SWIDTH 832 0
DWIDTH 14 0
BBX 14 23 0 -4
BITMAP
FFFC
FFFC
FFFC
FFFC
FFFC
FFFC
FFFC
FFFC
FFFC
FFFC
FFFC
FFFC
FFFC
FFFC
FFFC
FFFC
FFFC
FFFC
FFFC
FFFC
FFFC
FFFC
FFFC
ENDCHAR
STARTCHAR shade.uni2592
ENCODING 9618
SWIDTH 576 0
DWIDTH 14 0
BBX 14 23 0 -4
BITMAP
5554
0000
AAA8
0000
5554
0000
AAA8
0000
5554
0000
AAA8
0000
5554
0000
AAA8
0000
5554
0000
AAA8
0000
5554
0000
AAA8
ENDCHAR
STARTCHAR filledbox.uni25A0
ENCODING 9632
SWIDTH 576 0
DWIDTH 14 0
BBX 10 10 2 2
BITMAP
FFC0
FFC0
FFC0
FFC0
FFC0
FFC0
FFC0
FFC0
FFC0
FFC0
ENDCHAR
STARTCHAR triagup.uni25B2
ENCODING 9650
SWIDTH 576 0
DWIDTH 14 0
BBX 12 12 1 1
BITMAP
0600
0600
0F00
0F00
1F80
1F80
3FC0
3FC0
7FE0
7FE0
FFF0
FFF0
ENDCHAR
STARTCHAR triagright.uni25B6
ENCODING 9654
SWIDTH 576 0
DWIDTH 14 0
BBX 12 11 1 3
BITMAP
C000
F000
FC00
FF00
FFC0
FFF0
FFC0
FF00
FC00
F000
C000
ENDCHAR
STARTCHAR triagdn.uni25BC
ENCODING 9660
SWIDTH 576 0
DWIDTH 14 0
BBX 12 12 1 1
BITMAP
FFF0
FFF0
7FE0
7FE0
3FC0
3FC0
1F80
1F80
0F00
0F00
0600
0600
ENDCHAR
STARTCHAR lozenge.uni25CA
ENCODING 9674
SWIDTH 576 0
DWIDTH 14 0
BBX 11 23 1 -5
BITMAP
0400
0400
0E00
0A00
1B00
1100
3180
2080
60C0
4040
C060
8020
C060
4040
60C0
2080
3180
1100
1B00
0A00
0E00
0400
0400
ENDCHAR
STARTCHAR boldparleft.uni27EA
ENCODING 10218
SWIDTH 832 0
DWIDTH 14 0
BBX 9 21 3 -3
BITMAP
0780
0F00
1E00
1E00
3C00
3C00
7800
7800
7800
F800
F000
F000
F000
F000
F000
F000
F000
F000
7800
7800
7800
ENDCHAR
STARTCHAR boldparright.uni27EB
ENCODING 10219
SWIDTH 1308 0
DWIDTH 22 0
BBX 9 21 2 -3
BITMAP
0F00
0F00
0F00
0780
0780
0780
0780
0780
0780
0780
0780
0F80
0F00
0F00
0F00
1E00
1E00
3C00
3C00
7800
F000
ENDCHAR
STARTCHAR triagleft.uni25C0
ENCODING 9664
SWIDTH 576 0
DWIDTH 14 0
BBX 12 11 1 3
BITMAP
0030
00F0
03F0
0FF0
3FF0
FFF0
3FF0
0FF0
03F0
00F0
0030
ENDCHAR
STARTCHAR germandblS.uni1E9E
ENCODING 7838
SWIDTH 576 0
DWIDTH 14 0
BBX 13 18 1 0
BITMAP
03F8
0FF0
0C30
1860
18C0
38C0
3180
3300
3300
37C0
70E0
6060
6060
6060
6060
F0C0
DFC0
CF00
ENDCHAR
STARTCHAR Gamma.uni0393
ENCODING 915
SWIDTH 576 0
DWIDTH 14 0
BBX 14 18 1 0
BITMAP
1FFC
1FFC
1800
3000
3000
3000
3000
3000
3000
6000
6000
6000
6000
6000
6000
C000
C000
C000
ENDCHAR
ENDFONT
